<svg width="20" height="20" viewBox="0 0 20 20" fill="none" xmlns="http://www.w3.org/2000/svg">
<g clip-path="url(#clip0_405_28)">
<path fill-rule="evenodd" clip-rule="evenodd" d="M12.6815 0.708958H14.0844V0.737063C14.0844 1.68375 13.7311 2.56757 13.0264 3.38594C12.1758 4.35852 11.147 4.92061 10.0318 4.83186C10.0167 4.71285 10.0092 4.59306 10.009 4.47315C10.009 3.56455 10.4135 2.59161 11.1318 1.79654C11.4904 1.39346 11.9465 1.05916 12.4995 0.791793C12.5602 0.762948 12.6208 0.735213 12.6815 0.708958ZM2.46631 8.07057C2.53833 7.92376 2.6168 7.78102 2.70133 7.64234C3.14295 6.9057 3.72975 6.32474 4.46401 5.89836C5.18433 5.47659 6.00678 5.24952 6.84684 5.24049C7.31461 5.24049 7.92795 5.38212 8.68988 5.66021C9.44991 5.93904 9.93777 6.08068 10.1516 6.08068C10.3115 6.08068 10.8536 5.915 11.7725 5.58514C12.6417 5.27932 13.3752 5.15248 13.976 5.20277C15.6041 5.33109 16.827 5.95901 17.6405 7.09023C17.1541 7.37867 16.7497 7.70521 16.4274 8.07057H2.46631Z" fill="#5C9E31"/>
<path d="M12.6813 0.708953V0.339153C12.6281 0.339203 12.5755 0.350165 12.527 0.371326L12.6813 0.708953ZM14.0842 0.708953L14.4633 0.706365C14.4626 0.608737 14.4223 0.515341 14.3513 0.446548C14.2803 0.377756 14.1843 0.339151 14.0842 0.339153V0.708953ZM13.0262 3.38631L13.3143 3.62594L13.3162 3.62372L13.0258 3.38594L13.0262 3.38631ZM10.0316 4.83223L9.65515 4.8766C9.66568 4.96113 9.70579 5.03952 9.76871 5.09854C9.83163 5.15756 9.91349 5.19359 10.0005 5.20055L10.0312 4.83186L10.0316 4.83223ZM11.1316 1.79617L11.4159 2.04097L11.4178 2.03912L11.1316 1.79654V1.79617ZM12.4993 0.791789L12.3325 0.459708L12.331 0.460448L12.4993 0.791789ZM2.46609 8.07057L2.12417 7.91118C2.09658 7.96754 2.08407 8.0298 2.0878 8.09215C2.09154 8.15451 2.11141 8.21492 2.14555 8.26776C2.17969 8.32059 2.22699 8.36414 2.28304 8.39432C2.33909 8.4245 2.40207 8.44034 2.46609 8.44037V8.07057ZM2.70112 7.64234L3.02712 7.83167L3.02863 7.82872L2.70112 7.64234ZM6.84662 5.24048V4.87068H6.84056L6.84662 5.24048ZM8.68966 5.66021L8.82309 5.31407H8.82234L8.68966 5.66021ZM11.7723 5.58514L11.6438 5.23753L11.6415 5.23827L11.7723 5.58514ZM13.9758 5.20277L13.9436 5.57109H13.9451L13.9758 5.20277ZM17.6403 7.09023L17.8374 7.40603C17.8817 7.37974 17.92 7.34485 17.95 7.30353C17.9799 7.2622 18.0009 7.21532 18.0115 7.16578C18.0221 7.11625 18.0222 7.06511 18.0117 7.01554C18.0013 6.96597 17.9805 6.91901 17.9507 6.87759L17.6403 7.09023ZM16.4272 8.07057V8.44037C16.4818 8.4404 16.5357 8.42895 16.5853 8.40681C16.6348 8.38466 16.679 8.35234 16.7146 8.31204L16.4272 8.07057ZM12.6813 1.07875H14.0842V0.339153H12.6813V1.07875ZM13.7051 0.711542V0.737428H14.4633V0.706365L13.7051 0.711542ZM13.7051 0.737428C13.7051 1.58538 13.3913 2.38711 12.7359 3.14816L13.3162 3.62372C14.0706 2.7484 14.4633 1.78248 14.4633 0.737428H13.7051ZM12.7377 3.14594C11.9341 4.06526 11.0141 4.53897 10.0623 4.46353L10.0005 5.20055C11.2798 5.30224 12.4171 4.65213 13.3143 3.62594L12.7377 3.14594ZM10.4076 4.78711C10.3945 4.68294 10.3879 4.5781 10.3879 4.47315H9.62975C9.62975 4.61478 9.63923 4.74939 9.65515 4.8766L10.4076 4.78711ZM10.3879 4.47315C10.3879 3.66773 10.7491 2.77946 11.4159 2.04097L10.8473 1.5521C10.0778 2.40412 9.62975 3.46064 9.62975 4.47315H10.3879ZM11.4178 2.03912C11.7393 1.67783 12.1532 1.37164 12.6676 1.1235L12.331 0.460448C11.7389 0.746303 11.2408 1.10982 10.8454 1.55395L11.4178 2.03912ZM12.6657 1.12424C12.7226 1.09687 12.7794 1.07099 12.8355 1.04658L12.527 0.371326C12.4625 0.399061 12.3977 0.428645 12.3325 0.459708L12.6657 1.12424ZM2.80802 8.23032C2.87511 8.09349 2.94827 7.96073 3.02712 7.83167L2.37588 7.45263C2.2849 7.60129 2.20112 7.75402 2.12417 7.91118L2.80802 8.23032ZM3.02863 7.82872C3.43803 7.14496 3.9801 6.60986 4.65788 6.21602L4.27009 5.58033C3.47897 6.03962 2.84668 6.66643 2.37436 7.45559L3.02863 7.82872ZM4.65788 6.21602C5.32128 5.82736 6.0789 5.61827 6.85269 5.61028L6.84056 4.87068C5.92056 4.88548 5.06196 5.1203 4.27009 5.58033L4.65788 6.21602ZM6.84662 5.61028C7.24654 5.61028 7.80946 5.7338 8.55699 6.00634L8.82234 5.31407C8.046 5.03081 7.38187 4.87068 6.84662 4.87068V5.61028ZM8.55623 6.00597C8.87275 6.12495 9.19352 6.23288 9.51793 6.32955C9.76129 6.39981 9.98418 6.45047 10.1514 6.45047V5.71087C10.1051 5.71087 9.97698 5.69053 9.73286 5.62027C9.42606 5.52851 9.12262 5.42638 8.82309 5.31407L8.55623 6.00634V6.00597ZM10.1514 6.45047C10.2404 6.45047 10.3424 6.43013 10.4319 6.40905C10.5312 6.38576 10.6517 6.3521 10.7905 6.30958C11.1644 6.19234 11.5355 6.06657 11.9034 5.93238L11.6415 5.23827C11.2852 5.36818 10.9262 5.49 10.5642 5.60363C10.433 5.64394 10.3303 5.67204 10.2541 5.69016C10.1684 5.7105 10.1423 5.71087 10.1514 5.71087V6.45047ZM11.9011 5.93312C12.7427 5.63691 13.4182 5.52745 13.9436 5.57109L14.008 4.83407C13.3314 4.77787 12.5399 4.92246 11.6438 5.23753L11.9011 5.93312ZM13.9451 5.57109C15.4803 5.69238 16.5921 6.2763 17.3302 7.30249L17.9507 6.87759C17.0618 5.64172 15.7267 4.96979 14.0061 4.83407L13.9451 5.57109ZM17.4435 6.77405C16.928 7.0795 16.4921 7.43081 16.1399 7.82946L16.7146 8.31204C17.0076 7.97996 17.3798 7.67747 17.8374 7.40603L17.4435 6.77405ZM16.4276 7.70077H2.46572V8.44037H16.4272L16.4269 7.70077H16.4276Z" fill="#5C9E31"/>
<path fill-rule="evenodd" clip-rule="evenodd" d="M17.273 7.3846C16.2999 8.06207 15.7226 8.92556 15.5406 9.9732H1.92407C2.0359 9.1234 2.29518 8.36531 2.70192 7.70078C2.76712 7.59206 2.83536 7.48629 2.90662 7.3846H17.2734H17.273Z" fill="#FCEA2B"/>
<path fill-rule="evenodd" clip-rule="evenodd" d="M15.6082 9.60339C15.518 9.95101 15.4748 10.3208 15.4786 10.7128C15.4861 11.394 15.6317 12.0104 15.9149 12.5618H2.00681C1.91016 12.0203 1.86109 11.4717 1.86011 10.9221C1.86011 10.4591 1.89726 10.0198 1.97193 9.60339H15.6082Z" fill="#F4AA41"/>
<path fill-rule="evenodd" clip-rule="evenodd" d="M15.6865 12.192C15.9003 12.8388 16.2778 13.4079 16.8199 13.899C17.2089 14.2633 17.6631 14.5548 18.1599 14.7591L18.1523 14.7806H2.57372C2.54264 14.6978 2.51231 14.6142 2.48236 14.5299C2.20299 13.7337 2.01725 12.9545 1.92627 12.192H15.6865Z" fill="#EA5A47"/>
<path fill-rule="evenodd" clip-rule="evenodd" d="M16.8874 17.3692C17.2498 16.8402 17.5614 16.2798 17.8184 15.6951C17.9421 15.4063 18.056 15.1137 18.16 14.8176C18.1308 14.8056 18.1017 14.7932 18.0728 14.7806H2.55176C2.91187 15.7521 3.35918 16.6141 3.89291 17.3692H16.8874Z" fill="#8967AA"/>
<path fill-rule="evenodd" clip-rule="evenodd" d="M6.61302 19.588C6.1968 19.4904 5.78134 19.2529 5.36626 18.8758C5.01448 18.5755 4.57931 18.0733 4.06226 17.3692H16.7217C16.2001 18.0903 15.771 18.5925 15.4378 18.8758C14.998 19.2714 14.5325 19.5081 14.0398 19.588H13.318C12.9655 19.5381 12.5674 19.4245 12.1239 19.2459C11.5034 18.9982 10.9329 18.8758 10.4113 18.8758C9.8643 18.8758 9.2775 18.9985 8.64976 19.2463C8.2252 19.4142 7.85674 19.5277 7.54287 19.588H6.61302Z" fill="#61B2E4"/>
<path d="M10.0313 4.83154C10.0164 4.71252 10.009 4.59273 10.009 4.47283C10.009 3.56423 10.4134 2.59129 11.1318 1.79622C11.4904 1.39313 11.9464 1.05883 12.4995 0.791469C13.0514 0.528541 13.5734 0.382839 14.0643 0.358063C14.0787 0.484534 14.0843 0.611006 14.0843 0.736738C14.0843 1.68343 13.7311 2.56725 13.0264 3.38562C12.7117 3.74543 12.3725 4.04941 12.0135 4.2846M17.8186 15.4611C17.5363 16.1039 17.1876 16.717 16.778 17.2908C16.231 18.0537 15.783 18.5822 15.438 18.8754C14.9028 19.3569 14.3292 19.6032 13.7155 19.6173C13.2747 19.6173 12.7432 19.4949 12.1246 19.2456C11.5036 18.9978 10.9331 18.8754 10.4112 18.8754C9.86454 18.8754 9.27774 18.9982 8.65 19.246C8.02151 19.4949 7.51507 19.6243 7.12804 19.6372C6.53934 19.6616 5.95254 19.4079 5.3665 18.8754C4.99274 18.5563 4.52497 18.0094 3.96508 17.235C3.36388 16.4074 2.86957 15.4481 2.48254 14.3543C2.06784 13.1731 1.86011 12.029 1.86011 10.9218C1.86011 9.65336 2.14062 8.55875 2.70164 7.64165C3.14288 6.90574 3.72968 6.32442 4.46432 5.89804C5.18453 5.47633 6.00684 5.24926 6.84677 5.24016C7.31454 5.24016 7.92788 5.3818 8.68981 5.65989C9.44984 5.93872 9.9377 6.08035 10.1515 6.08035C10.3115 6.08035 10.8535 5.91468 11.7724 5.58482C12.6416 5.27899 13.3751 5.15215 13.9759 5.20245C15.604 5.33077 16.8269 5.95869 17.6404 7.08991C16.1848 7.95302 15.4642 9.16153 15.4786 10.7125C15.4915 11.9202 15.9395 12.9254 16.8197 13.7234C17.2088 14.0877 17.6631 14.3792 18.1601 14.5835C18.0562 14.8796 17.9423 15.1723 17.8186 15.4611Z" stroke="black" stroke-width="0.728105" stroke-linecap="round" stroke-linejoin="round"/>
</g>
<defs>
<clipPath id="clip0_405_28">
<rect width="20" height="20" fill="white"/>
</clipPath>
</defs>
</svg>
