<svg width="353" height="98" viewBox="0 0 353 98" fill="none" xmlns="http://www.w3.org/2000/svg">
<path d="M130.28 37C132.707 37 134.813 37.4 136.6 38.2C138.413 39 139.8 40.1467 140.76 41.64C141.72 43.1333 142.2 44.9067 142.2 46.96C142.2 48.9867 141.72 50.76 140.76 52.28C139.8 53.7733 138.413 54.92 136.6 55.72C134.813 56.52 132.707 56.92 130.28 56.92H123.96V65H118.76V37H130.28ZM130.04 52.52C132.307 52.52 134.027 52.04 135.2 51.08C136.373 50.12 136.96 48.7467 136.96 46.96C136.96 45.1733 136.373 43.8 135.2 42.84C134.027 41.88 132.307 41.4 130.04 41.4H123.96V52.52H130.04ZM152.743 65.28C150.53 65.28 148.797 64.68 147.543 63.48C146.317 62.2533 145.703 60.5333 145.703 58.32V35.32H150.703V57.96C150.703 60.0933 151.703 61.16 153.703 61.16C154.37 61.16 154.97 61.0267 155.503 60.76L155.743 64.76C154.81 65.1067 153.81 65.28 152.743 65.28ZM178.03 43.64V65H173.27V62.24C172.444 63.2533 171.417 64.0133 170.19 64.52C168.99 65.0267 167.657 65.28 166.19 65.28C164.11 65.28 162.244 64.8267 160.59 63.92C158.964 63.0133 157.684 61.7333 156.75 60.08C155.844 58.4267 155.39 56.5067 155.39 54.32C155.39 52.1333 155.844 50.2267 156.75 48.6C157.684 46.9467 158.964 45.6667 160.59 44.76C162.244 43.8533 164.11 43.4 166.19 43.4C167.577 43.4 168.844 43.64 169.99 44.12C171.164 44.6 172.177 45.3067 173.03 46.24V43.64H178.03ZM166.75 61C168.59 61 170.11 60.3867 171.31 59.16C172.51 57.9333 173.11 56.32 173.11 54.32C173.11 52.32 172.51 50.7067 171.31 49.48C170.11 48.2533 168.59 47.64 166.75 47.64C164.91 47.64 163.39 48.2533 162.19 49.48C161.017 50.7067 160.43 52.32 160.43 54.32C160.43 56.32 161.017 57.9333 162.19 59.16C163.39 60.3867 164.91 61 166.75 61ZM194.972 63.84C194.386 64.32 193.666 64.68 192.812 64.92C191.986 65.16 191.106 65.28 190.172 65.28C187.826 65.28 186.012 64.6667 184.732 63.44C183.452 62.2133 182.812 60.4267 182.812 58.08V38.92H187.812V43.8H193.532V47.8H187.812V57.96C187.812 59 188.066 59.8 188.572 60.36C189.106 60.8933 189.839 61.16 190.772 61.16C191.892 61.16 192.826 60.8667 193.572 60.28L194.972 63.84ZM214.385 61V65H195.945V61.84L200.745 56.04H197.425V52.36H203.785L207.665 47.64H196.185V43.64H214.065V46.8L209.425 52.4H212.865V56.08H206.385L202.305 61H214.385ZM217.585 43.64H222.585V65H217.585V43.64ZM220.105 40.12C219.198 40.12 218.438 39.84 217.825 39.28C217.211 38.6933 216.905 37.9733 216.905 37.12C216.905 36.2667 217.211 35.56 217.825 35C218.438 34.4133 219.198 34.12 220.105 34.12C221.011 34.12 221.771 34.4 222.385 34.96C222.998 35.4933 223.305 36.1733 223.305 37C223.305 37.88 222.998 38.6267 222.385 39.24C221.798 39.8267 221.038 40.12 220.105 40.12ZM258.587 34.2L245.387 65H236.807L223.651 34.2H233.067L241.427 54.264L249.963 34.2H258.587ZM258.879 41.152H267.239V65H258.879V41.152ZM263.059 38.512C261.533 38.512 260.301 38.0867 259.363 37.236C258.424 36.3853 257.955 35.3293 257.955 34.068C257.955 32.8067 258.424 31.7507 259.363 30.9C260.301 30.0493 261.533 29.624 263.059 29.624C264.584 29.624 265.816 30.0347 266.755 30.856C267.693 31.648 268.163 32.6747 268.163 33.936C268.163 35.256 267.693 36.356 266.755 37.236C265.816 38.0867 264.584 38.512 263.059 38.512ZM296.256 32.352V65H288.292V62.624C286.737 64.472 284.405 65.396 281.296 65.396C279.125 65.396 277.145 64.8973 275.356 63.9C273.566 62.8733 272.144 61.4213 271.088 59.544C270.061 57.6667 269.548 55.496 269.548 53.032C269.548 50.568 270.061 48.412 271.088 46.564C272.144 44.6867 273.566 43.2493 275.356 42.252C277.145 41.2547 279.125 40.756 281.296 40.756C284.141 40.756 286.341 41.5773 287.896 43.22V32.352H296.256ZM283.056 58.752C284.493 58.752 285.681 58.2533 286.62 57.256C287.558 56.2293 288.028 54.8213 288.028 53.032C288.028 51.272 287.558 49.8933 286.62 48.896C285.71 47.8987 284.522 47.4 283.056 47.4C281.589 47.4 280.386 47.8987 279.448 48.896C278.509 49.8933 278.04 51.272 278.04 53.032C278.04 54.8213 278.509 56.2293 279.448 57.256C280.386 58.2533 281.589 58.752 283.056 58.752ZM312.634 59.016C313.778 59.016 314.761 58.8547 315.582 58.532C316.433 58.2093 317.284 57.6813 318.134 56.948L322.49 61.524C320.232 64.1053 316.858 65.396 312.37 65.396C309.584 65.396 307.134 64.868 305.022 63.812C302.91 62.756 301.268 61.2893 300.094 59.412C298.95 57.5347 298.378 55.408 298.378 53.032C298.378 50.6853 298.95 48.588 300.094 46.74C301.238 44.8627 302.808 43.396 304.802 42.34C306.826 41.284 309.085 40.756 311.578 40.756C313.896 40.756 316.008 41.24 317.914 42.208C319.85 43.1467 321.39 44.54 322.534 46.388C323.678 48.2067 324.25 50.3773 324.25 52.9L307.222 56.156C308.132 58.0627 309.936 59.016 312.634 59.016ZM311.622 46.696C310.185 46.696 309.012 47.1507 308.102 48.06C307.193 48.94 306.68 50.216 306.562 51.888L316.242 49.996C315.949 48.9987 315.392 48.2067 314.57 47.62C313.749 47.004 312.766 46.696 311.622 46.696ZM338.313 65.396C335.761 65.396 333.458 64.868 331.405 63.812C329.351 62.756 327.738 61.2893 326.565 59.412C325.421 57.5347 324.849 55.408 324.849 53.032C324.849 50.6853 325.421 48.5733 326.565 46.696C327.738 44.8187 329.337 43.3667 331.361 42.34C333.414 41.284 335.731 40.756 338.313 40.756C340.894 40.756 343.211 41.284 345.265 42.34C347.318 43.3667 348.917 44.8187 350.061 46.696C351.205 48.544 351.777 50.656 351.777 53.032C351.777 55.408 351.205 57.5347 350.061 59.412C348.917 61.2893 347.318 62.756 345.265 63.812C343.211 64.868 340.894 65.396 338.313 65.396ZM338.313 58.752C339.779 58.752 340.982 58.2533 341.921 57.256C342.859 56.2293 343.329 54.8213 343.329 53.032C343.329 51.272 342.859 49.8933 341.921 48.896C340.982 47.8987 339.779 47.4 338.313 47.4C336.846 47.4 335.643 47.8987 334.705 48.896C333.766 49.8933 333.297 51.272 333.297 53.032C333.297 54.8213 333.766 56.2293 334.705 57.256C335.643 58.2533 336.846 58.752 338.313 58.752Z" fill="white"/>
<path fill-rule="evenodd" clip-rule="evenodd" d="M0 22L49 41V97.5L0 78V22ZM28.5 45C30.433 45 32 46.567 32 48.5V72.5C32 74.433 30.433 76 28.5 76C26.567 76 25 74.433 25 72.5V48.5C25 46.567 26.567 45 28.5 45ZM22 44C22 42.067 20.433 40.5 18.5 40.5C16.567 40.5 15 42.067 15 44V68C15 69.933 16.567 71.5 18.5 71.5C20.433 71.5 22 69.933 22 68V44Z" fill="white"/>
<path fill-rule="evenodd" clip-rule="evenodd" d="M99 21.5V77.5L51 97.5V41L99 21.5ZM83.2239 59.5551L77.3338 65.7069C72.9541 70.2812 70.7643 72.5684 68.8821 71.8127C67 71.0569 67 67.8904 67 61.5574V53.1805C67 49.2382 67 47.267 68.2942 46.3724C69.5884 45.4779 71.4324 46.1745 75.1204 47.5677L81.0104 49.7928C84.8462 51.2419 86.7641 51.9664 87.1207 53.5395C87.4774 55.1125 86.0596 56.5934 83.2239 59.5551Z" fill="white"/>
<path fill-rule="evenodd" clip-rule="evenodd" d="M1.5 20L50 39.5L97.5 19.5L49 0L1.5 20ZM46.8901 29.4173C48.3139 29.9524 49.0258 30.22 49.7686 30.2143C50.5114 30.2085 51.2191 29.93 52.6345 29.3729L56.1485 27.9899C57.0386 27.6395 57.8802 27.3083 58.6732 26.9926C58.7659 26.9557 58.8579 26.919 58.9493 26.8825C65.2364 24.372 68.3778 22.8407 68.3592 20.4286C68.3405 18.0166 65.1758 16.534 58.8507 14.121C58.7587 14.086 58.6661 14.0507 58.5729 14.0152C57.7751 13.7118 56.9285 13.3937 56.033 13.0571L52.1099 11.5827C50.6861 11.0476 49.9742 10.78 49.2314 10.7857C48.4886 10.7915 47.7809 11.07 46.3655 11.6271L42.8515 13.0101C41.9614 13.3605 41.1198 13.6917 40.3268 14.0074C40.2341 14.0443 40.1421 14.081 40.0507 14.1175C33.7636 16.628 30.6222 18.1593 30.6408 20.5714C30.6595 22.9834 33.8242 24.466 40.1493 26.879C40.2413 26.914 40.3339 26.9493 40.4272 26.9848C41.2249 27.2882 42.0715 27.6063 42.967 27.9429L46.8901 29.4173ZM48.9274 18.2517L49.2451 19.2051Z" fill="white"/>
</svg>
