<svg width="24" height="24" viewBox="0 0 24 24" fill="none" xmlns="http://www.w3.org/2000/svg">
<g clip-path="url(#clip0_439_6)">
<path d="M10.9967 1.20761L10.9967 1.2076C11.3724 0.264134 12.6276 0.264135 13.0033 1.2076L13.0033 1.20761L15.525 7.53928L15.6395 7.82671L15.9478 7.85253L22.4934 8.40053C23.4297 8.47892 23.8829 9.75284 23.1089 10.4453L18.1219 14.9065L17.9021 15.1031L17.9678 15.3905L19.4914 22.0607C19.7338 23.1222 18.6506 23.8261 17.8727 23.3299L12.2688 19.7554L11.9999 19.5839L11.7311 19.7554L6.12726 23.3299C6.12725 23.3299 6.12724 23.3299 6.12724 23.3299C5.34932 23.8261 4.26616 23.1222 4.50859 22.0607L6.0322 15.3905L6.09786 15.1031L5.87812 14.9065L0.891132 10.4453L0.585258 10.7872L0.891128 10.4453C0.117091 9.75283 0.570266 8.47892 1.50664 8.40053L8.05215 7.85253L8.36047 7.82671L8.47495 7.53928L10.9967 1.20761Z" fill="#e9c46a" stroke="black"/>
</g>
<defs>
<clipPath id="clip0_439_6">
<rect width="24" height="24" fill="white"/>
</clipPath>
</defs>
</svg>
