<svg width="99" height="98" viewBox="0 0 99 98" fill="none" xmlns="http://www.w3.org/2000/svg">
<g clip-path="url(#clip0_334_3)">
<path fill-rule="evenodd" clip-rule="evenodd" d="M0 22L49 41V97.5L0 78V22ZM28.5 45C30.433 45 32 46.567 32 48.5V72.5C32 74.433 30.433 76 28.5 76C26.567 76 25 74.433 25 72.5V48.5C25 46.567 26.567 45 28.5 45ZM22 44C22 42.067 20.433 40.5 18.5 40.5C16.567 40.5 15 42.067 15 44V68C15 69.933 16.567 71.5 18.5 71.5C20.433 71.5 22 69.933 22 68V44Z" fill="white"/>
<path fill-rule="evenodd" clip-rule="evenodd" d="M99 21.5V77.5L51 97.5V41L99 21.5ZM83.2239 59.5551L77.3338 65.7069C72.9541 70.2812 70.7643 72.5684 68.8821 71.8127C67 71.0569 67 67.8904 67 61.5574V53.1805C67 49.2382 67 47.267 68.2942 46.3724C69.5884 45.4779 71.4324 46.1745 75.1204 47.5677L81.0104 49.7928C84.8462 51.2419 86.7641 51.9664 87.1207 53.5395C87.4774 55.1125 86.0596 56.5934 83.2239 59.5551Z" fill="white"/>
<path fill-rule="evenodd" clip-rule="evenodd" d="M1.5 20L50 39.5L97.5 19.5L49 0L1.5 20ZM46.8901 29.4173C48.3139 29.9524 49.0258 30.22 49.7686 30.2143C50.5114 30.2085 51.2191 29.93 52.6345 29.3729L56.1485 27.9899C57.0386 27.6395 57.8802 27.3083 58.6732 26.9926C58.7659 26.9557 58.8579 26.919 58.9493 26.8825C65.2364 24.372 68.3778 22.8407 68.3592 20.4286C68.3405 18.0166 65.1758 16.534 58.8507 14.121C58.7587 14.086 58.6661 14.0507 58.5729 14.0152C57.7751 13.7118 56.9285 13.3937 56.033 13.0571L52.1099 11.5827C50.6861 11.0476 49.9742 10.78 49.2314 10.7857C48.4886 10.7915 47.7809 11.07 46.3655 11.6271L42.8515 13.0101C41.9614 13.3605 41.1198 13.6917 40.3268 14.0074C40.2341 14.0443 40.1421 14.081 40.0507 14.1175C33.7636 16.628 30.6222 18.1593 30.6408 20.5714C30.6595 22.9834 33.8242 24.466 40.1493 26.879C40.2413 26.914 40.3339 26.9493 40.4272 26.9848C41.2249 27.2882 42.0715 27.6063 42.967 27.9429L46.8901 29.4173Z" fill="white"/>
</g>
<defs>
<clipPath id="clip0_334_3">
<rect width="99" height="98" fill="white"/>
</clipPath>
</defs>
</svg>
